<?xml version="1.0" encoding="UTF-8"?>
<svg width="90px" height="40px" viewBox="0 0 90 40" version="1.1" xmlns="http://www.w3.org/2000/svg" xmlns:xlink="http://www.w3.org/1999/xlink">
    <!-- Generator: Sketch 43.2 (39069) - http://www.bohemiancoding.com/sketch -->
    <title>car</title>
    <desc>Created with Sketch.</desc>
    <defs></defs>
    <g id="AC-Parking" stroke="none" stroke-width="1" fill="none" fill-rule="evenodd" fill-opacity="0.503962862">
        <g id="Home---User" transform="translate(-35.000000, -104.000000)" fill-rule="nonzero" fill="#000000">
            <g id="spots" transform="translate(20.000000, 90.000000)">
                <path d="M52.6829268,78.7332724 C50.2439024,78.4886063 47.3170732,77.7546082 46.097561,77.02061 C44.3902439,76.0419457 44.1463415,75.3079475 43.4146341,69.6806281 C42.9268293,65.276639 42.9268293,63.5639765 42.9268293,43.2566933 C42.9268293,31.2680563 42.6829268,21.4814138 42.6829268,21.4814138 C42.4390244,21.4814138 42.195122,21.4814138 41.4634146,21.7260798 C39.5121951,22.2154119 39.5121951,21.2367477 41.4634146,20.0134174 L42.6829268,19.2794192 L42.6829268,10.2267749 C42.6829268,1.41879661 42.6829268,0.929464487 43.1707317,-1.51719614 C43.902439,-4.69785495 44.3902439,-5.18718708 45.8536585,-6.89984952 C52.195122,-12.527169 68.2926829,-12.2825029 74.1463415,-6.65518346 C75.6097561,-5.18718708 75.8536585,-4.69785495 76.5853659,-1.7618622 C77.0731707,0.440132362 77.0731707,0.684798424 77.0731707,9.98210881 L77.0731707,19.2794192 L77.804878,19.7687513 C78.7804878,20.0134174 80,20.9920816 80,21.4814138 C80,21.7260798 79.7560976,21.9707459 79.0243902,21.7260798 C78.5365854,21.7260798 77.804878,21.4814138 77.5609756,21.4814138 L77.0731707,21.2367477 L76.8292683,43.5013594 C76.8292683,63.8086426 76.8292683,66.2553032 76.3414634,70.1699602 C76.097561,72.8612869 75.6097561,74.8186154 75.3658537,75.3079475 C74.6341463,76.7759439 72.9268293,77.7546082 69.2682927,78.4886063 C67.3170732,78.9779385 55.6097561,79.2226045 52.6829268,78.7332724 Z M67.0731707,68.2126317 C69.7560976,67.7232996 72.4390244,66.9893014 73.1707317,66.4999693 C73.4146341,66.2553032 73.6585366,65.7659711 73.6585366,65.7659711 C73.6585366,65.521305 72.9268293,63.3193105 71.9512195,60.6279838 L70.4878049,55.9793286 L69.7560976,56.2239946 C69.2682927,56.2239946 68.0487805,56.4686607 67.0731707,56.7133268 C63.902439,57.2026589 56.097561,57.2026589 52.9268293,56.7133268 C51.7073171,56.4686607 50.2439024,56.2239946 50,56.2239946 C49.2682927,55.9793286 49.2682927,56.2239946 47.804878,60.8726498 C46.8292683,63.5639765 46.3414634,65.7659711 46.3414634,66.0106372 C46.5853659,66.7446353 49.0243902,67.7232996 52.9268293,68.2126317 C55.8536585,68.7019638 64.3902439,68.7019638 67.0731707,68.2126317 Z M46.5853659,56.4686607 L47.0731707,54.7559983 L46.097561,54.5113322 L44.8780488,54.5113322 L44.8780488,56.4686607 C45.1219512,58.9153213 45.6097561,58.9153213 46.5853659,56.4686607 Z M74.8780488,57.9366571 C74.8780488,57.691991 75.1219512,56.7133268 75.1219512,55.9793286 C75.1219512,54.2666661 74.8780488,54.2666661 73.6585366,54.5113322 C72.9268293,54.7559983 72.6829268,54.7559983 72.9268293,55.2453304 C73.1707317,56.4686607 74.1463415,58.4259892 74.3902439,58.4259892 C74.6341463,58.4259892 74.8780488,58.1813231 74.8780488,57.9366571 Z M47.5609756,53.0433358 C48.0487805,51.8200055 48.0487805,45.4586879 47.804878,43.0120273 L47.5609756,41.5440309 L46.3414634,41.2993648 C45.8536585,41.0546988 45.1219512,41.0546988 44.8780488,41.0546988 L44.8780488,47.1713503 L44.8780488,53.532668 L45.3658537,53.777334 C46.5853659,54.0220001 46.8292683,54.0220001 47.0731707,54.0220001 C47.3170732,54.0220001 47.5609756,53.777334 47.5609756,53.0433358 Z M74.6341463,53.777334 C74.8780488,53.777334 74.8780488,52.7986698 75.1219512,47.4160164 L75.1219512,41.0546988 C75.1219512,40.8100327 72.195122,41.2993648 72.195122,41.5440309 C72.195122,41.5440309 71.9512195,43.7460255 71.9512195,46.4373521 C71.7073171,49.862677 71.9512195,51.8200055 71.9512195,52.7986698 L72.4390244,54.2666661 L73.1707317,54.0220001 C73.6585366,54.0220001 74.3902439,53.777334 74.6341463,53.777334 Z M47.5609756,33.4700508 C47.3170732,29.0660617 46.8292683,26.6194011 44.8780488,18.3007549 L44.3902439,16.3434264 L44.3902439,26.8640671 C44.3902439,32.7360526 44.6341463,37.3847078 44.6341463,37.3847078 C44.8780488,37.3847078 45.6097561,37.8740399 46.3414634,38.6080381 L47.5609756,39.5867024 L47.5609756,38.6080381 L47.5609756,33.4700508 Z M73.6585366,38.3633721 L75.1219512,37.3847078 L75.3658537,30.5340581 C75.3658537,26.6194011 75.6097561,21.9707459 75.6097561,20.0134174 L75.6097561,16.5880925 C75.1219512,16.8327586 72.9268293,27.8427314 72.4390244,30.289392 C72.4390244,32.2467205 72.195122,39.5867024 72.195122,39.5867024 C72.195122,39.5867024 72.9268293,39.0973703 73.6585366,38.3633721 Z M51.2195122,28.0873974 C52.4390244,27.8427314 54.6341463,27.5980653 58.2926829,27.5980653 C63.6585366,27.3533993 66.8292683,27.5980653 69.7560976,28.3320635 C70.7317073,28.5767296 71.4634146,28.5767296 71.4634146,28.5767296 C71.7073171,28.3320635 74.3902439,16.0987604 74.3902439,15.3647622 C74.6341463,14.1414319 70.4878049,12.9181016 63.902439,12.4287694 C59.5121951,12.1841034 53.6585366,12.4287694 50,13.1627676 C47.804878,13.6520997 45.6097561,14.630764 45.3658537,15.1200961 C45.1219512,15.3647622 46.8292683,22.7047441 48.0487805,28.0873974 C48.2926829,28.8213956 48.0487805,28.8213956 51.2195122,28.0873974 Z M45.8536585,-0.783197952 C47.804878,-2.98519252 51.2195122,-7.63384771 50.9756098,-7.63384771 C50.4878049,-7.87851377 46.8292683,-5.92118527 46.097561,-5.18718708 C44.8780488,-4.20852283 44.3902439,-2.74052645 44.3902439,-1.02786401 L44.3902439,0.684798424 C44.6341463,0.684798424 45.3658537,-0.0491997637 45.8536585,-0.783197952 Z M75.6097561,-1.02786401 C75.6097561,-2.98519252 75.1219512,-3.96385677 73.902439,-4.94252102 C73.1707317,-5.6765192 69.2682927,-7.87851377 69.0243902,-7.63384771 C68.7804878,-7.63384771 69.2682927,-6.89984952 71.4634146,-3.7191907 C73.6585366,-1.02786401 75.1219512,0.684798424 75.3658537,0.684798424 C75.3658537,0.684798424 75.6097561,-0.0491997637 75.6097561,-1.02786401 Z" id="car" transform="translate(60.000000, 34.000000) rotate(90.000000) translate(-60.000000, -34.000000) "></path>
            </g>
        </g>
    </g>
</svg>